<svg width="325" height="49" viewBox="0 0 325 49" fill="none" xmlns="http://www.w3.org/2000/svg">
<path d="M79.1152 39.7178H73.168V15.5596C73.168 13.8779 73.4961 12.4629 74.1523 11.3145C74.8223 10.1523 75.7588 9.27734 76.9619 8.68945C78.1787 8.08789 79.6211 7.78711 81.2891 7.78711C81.8359 7.78711 82.3623 7.82812 82.8682 7.91016C83.374 7.97852 83.8662 8.06738 84.3447 8.17676L84.2832 12.627C84.0234 12.5586 83.75 12.5107 83.4629 12.4834C83.1758 12.4561 82.8408 12.4424 82.458 12.4424C81.7471 12.4424 81.1387 12.5654 80.6328 12.8115C80.1406 13.0439 79.7646 13.3926 79.5049 13.8574C79.2451 14.3223 79.1152 14.8896 79.1152 15.5596V39.7178ZM83.5449 17.5283V21.7119H69.8662V17.5283H83.5449ZM85.6982 28.8486V28.418C85.6982 26.791 85.9307 25.2939 86.3955 23.9268C86.8604 22.5459 87.5371 21.3496 88.4258 20.3379C89.3145 19.3262 90.4082 18.54 91.707 17.9795C93.0059 17.4053 94.4961 17.1182 96.1777 17.1182C97.8594 17.1182 99.3564 17.4053 100.669 17.9795C101.981 18.54 103.082 19.3262 103.971 20.3379C104.873 21.3496 105.557 22.5459 106.021 23.9268C106.486 25.2939 106.719 26.791 106.719 28.418V28.8486C106.719 30.4619 106.486 31.959 106.021 33.3398C105.557 34.707 104.873 35.9033 103.971 36.9287C103.082 37.9404 101.988 38.7266 100.689 39.2871C99.3906 39.8477 97.9004 40.1279 96.2188 40.1279C94.5371 40.1279 93.04 39.8477 91.7275 39.2871C90.4287 38.7266 89.3281 37.9404 88.4258 36.9287C87.5371 35.9033 86.8604 34.707 86.3955 33.3398C85.9307 31.959 85.6982 30.4619 85.6982 28.8486ZM91.6045 28.418V28.8486C91.6045 29.7783 91.6865 30.6465 91.8506 31.4531C92.0146 32.2598 92.2744 32.9707 92.6299 33.5859C92.999 34.1875 93.4775 34.6592 94.0654 35.001C94.6533 35.3428 95.3711 35.5137 96.2188 35.5137C97.0391 35.5137 97.7432 35.3428 98.3311 35.001C98.9189 34.6592 99.3906 34.1875 99.7461 33.5859C100.102 32.9707 100.361 32.2598 100.525 31.4531C100.703 30.6465 100.792 29.7783 100.792 28.8486V28.418C100.792 27.5156 100.703 26.668 100.525 25.875C100.361 25.0684 100.095 24.3574 99.7256 23.7422C99.3701 23.1133 98.8984 22.6211 98.3105 22.2656C97.7227 21.9102 97.0117 21.7324 96.1777 21.7324C95.3438 21.7324 94.6328 21.9102 94.0449 22.2656C93.4707 22.6211 92.999 23.1133 92.6299 23.7422C92.2744 24.3574 92.0146 25.0684 91.8506 25.875C91.6865 26.668 91.6045 27.5156 91.6045 28.418ZM109.405 28.8486V28.418C109.405 26.791 109.638 25.2939 110.103 23.9268C110.567 22.5459 111.244 21.3496 112.133 20.3379C113.021 19.3262 114.115 18.54 115.414 17.9795C116.713 17.4053 118.203 17.1182 119.885 17.1182C121.566 17.1182 123.063 17.4053 124.376 17.9795C125.688 18.54 126.789 19.3262 127.678 20.3379C128.58 21.3496 129.264 22.5459 129.729 23.9268C130.193 25.2939 130.426 26.791 130.426 28.418V28.8486C130.426 30.4619 130.193 31.959 129.729 33.3398C129.264 34.707 128.58 35.9033 127.678 36.9287C126.789 37.9404 125.695 38.7266 124.396 39.2871C123.098 39.8477 121.607 40.1279 119.926 40.1279C118.244 40.1279 116.747 39.8477 115.435 39.2871C114.136 38.7266 113.035 37.9404 112.133 36.9287C111.244 35.9033 110.567 34.707 110.103 33.3398C109.638 31.959 109.405 30.4619 109.405 28.8486ZM115.312 28.418V28.8486C115.312 29.7783 115.394 30.6465 115.558 31.4531C115.722 32.2598 115.981 32.9707 116.337 33.5859C116.706 34.1875 117.185 34.6592 117.772 35.001C118.36 35.3428 119.078 35.5137 119.926 35.5137C120.746 35.5137 121.45 35.3428 122.038 35.001C122.626 34.6592 123.098 34.1875 123.453 33.5859C123.809 32.9707 124.068 32.2598 124.232 31.4531C124.41 30.6465 124.499 29.7783 124.499 28.8486V28.418C124.499 27.5156 124.41 26.668 124.232 25.875C124.068 25.0684 123.802 24.3574 123.433 23.7422C123.077 23.1133 122.605 22.6211 122.018 22.2656C121.43 21.9102 120.719 21.7324 119.885 21.7324C119.051 21.7324 118.34 21.9102 117.752 22.2656C117.178 22.6211 116.706 23.1133 116.337 23.7422C115.981 24.3574 115.722 25.0684 115.558 25.875C115.394 26.668 115.312 27.5156 115.312 28.418ZM147.16 34.8779V8.21777H153.107V39.7178H147.755L147.16 34.8779ZM133.133 28.8896V28.459C133.133 26.7637 133.324 25.2256 133.707 23.8447C134.09 22.4502 134.65 21.2539 135.389 20.2559C136.127 19.2578 137.036 18.4854 138.116 17.9385C139.196 17.3916 140.427 17.1182 141.808 17.1182C143.106 17.1182 144.241 17.3916 145.212 17.9385C146.196 18.4854 147.03 19.2646 147.714 20.2764C148.411 21.2744 148.972 22.457 149.396 23.8242C149.819 25.1777 150.127 26.6611 150.318 28.2744V29.2178C150.127 30.7627 149.819 32.1982 149.396 33.5244C148.972 34.8506 148.411 36.0127 147.714 37.0107C147.03 37.9951 146.196 38.7607 145.212 39.3076C144.228 39.8545 143.079 40.1279 141.767 40.1279C140.386 40.1279 139.155 39.8477 138.075 39.2871C137.009 38.7266 136.106 37.9404 135.368 36.9287C134.644 35.917 134.09 34.7275 133.707 33.3604C133.324 31.9932 133.133 30.5029 133.133 28.8896ZM139.039 28.459V28.8896C139.039 29.8057 139.107 30.6602 139.244 31.4531C139.395 32.2461 139.634 32.9502 139.962 33.5654C140.304 34.167 140.741 34.6387 141.274 34.9805C141.821 35.3086 142.484 35.4727 143.264 35.4727C144.275 35.4727 145.109 35.2471 145.766 34.7959C146.422 34.3311 146.921 33.6953 147.263 32.8887C147.618 32.082 147.823 31.1523 147.878 30.0996V27.4131C147.837 26.5518 147.714 25.7793 147.509 25.0957C147.317 24.3984 147.03 23.8037 146.647 23.3115C146.278 22.8193 145.813 22.4365 145.253 22.1631C144.706 21.8896 144.057 21.7529 143.305 21.7529C142.539 21.7529 141.883 21.9307 141.336 22.2861C140.789 22.6279 140.345 23.0996 140.003 23.7012C139.675 24.3027 139.429 25.0137 139.265 25.834C139.114 26.6406 139.039 27.5156 139.039 28.459ZM174.087 21.7939V48.249H168.181V17.5283H173.656L174.087 21.7939ZM188.135 28.377V28.8076C188.135 30.4209 187.943 31.918 187.561 33.2988C187.191 34.6797 186.645 35.8828 185.92 36.9082C185.195 37.9199 184.293 38.7129 183.213 39.2871C182.146 39.8477 180.916 40.1279 179.521 40.1279C178.168 40.1279 176.992 39.8545 175.994 39.3076C174.996 38.7607 174.155 37.9951 173.472 37.0107C172.802 36.0127 172.262 34.8574 171.852 33.5449C171.441 32.2324 171.127 30.8242 170.908 29.3203V28.1924C171.127 26.5791 171.441 25.1025 171.852 23.7627C172.262 22.4092 172.802 21.2402 173.472 20.2559C174.155 19.2578 174.989 18.4854 175.974 17.9385C176.972 17.3916 178.141 17.1182 179.48 17.1182C180.889 17.1182 182.126 17.3848 183.192 17.918C184.272 18.4512 185.175 19.2168 185.899 20.2148C186.638 21.2129 187.191 22.4023 187.561 23.7832C187.943 25.1641 188.135 26.6953 188.135 28.377ZM182.208 28.8076V28.377C182.208 27.4336 182.126 26.5654 181.962 25.7725C181.812 24.9658 181.565 24.2617 181.224 23.6602C180.896 23.0586 180.458 22.5938 179.911 22.2656C179.378 21.9238 178.729 21.7529 177.963 21.7529C177.156 21.7529 176.466 21.8828 175.892 22.1426C175.331 22.4023 174.873 22.7783 174.518 23.2705C174.162 23.7627 173.896 24.3506 173.718 25.0342C173.54 25.7178 173.431 26.4902 173.39 27.3516V30.2021C173.458 31.2139 173.649 32.123 173.964 32.9297C174.278 33.7227 174.764 34.3516 175.42 34.8164C176.076 35.2812 176.938 35.5137 178.004 35.5137C178.783 35.5137 179.439 35.3428 179.973 35.001C180.506 34.6455 180.937 34.1602 181.265 33.5449C181.606 32.9297 181.846 32.2188 181.982 31.4121C182.133 30.6055 182.208 29.7373 182.208 28.8076ZM203.782 34.7139V24.8291C203.782 24.1182 203.666 23.5098 203.434 23.0039C203.201 22.4844 202.839 22.0811 202.347 21.7939C201.868 21.5068 201.246 21.3633 200.48 21.3633C199.824 21.3633 199.257 21.4795 198.778 21.7119C198.3 21.9307 197.931 22.252 197.671 22.6758C197.411 23.0859 197.281 23.5713 197.281 24.1318H191.375C191.375 23.1885 191.594 22.293 192.031 21.4453C192.469 20.5977 193.104 19.8525 193.938 19.21C194.772 18.5537 195.764 18.041 196.912 17.6719C198.074 17.3027 199.373 17.1182 200.809 17.1182C202.531 17.1182 204.062 17.4053 205.402 17.9795C206.742 18.5537 207.795 19.415 208.561 20.5635C209.34 21.7119 209.729 23.1475 209.729 24.8701V34.3652C209.729 35.582 209.805 36.5801 209.955 37.3594C210.105 38.125 210.324 38.7949 210.611 39.3691V39.7178H204.644C204.356 39.1162 204.138 38.3643 203.987 37.4619C203.851 36.5459 203.782 35.6299 203.782 34.7139ZM204.562 26.2031L204.603 29.5459H201.301C200.521 29.5459 199.845 29.6348 199.271 29.8125C198.696 29.9902 198.225 30.2432 197.855 30.5713C197.486 30.8857 197.213 31.2549 197.035 31.6787C196.871 32.1025 196.789 32.5674 196.789 33.0732C196.789 33.5791 196.905 34.0371 197.138 34.4473C197.37 34.8438 197.705 35.1582 198.143 35.3906C198.58 35.6094 199.093 35.7188 199.681 35.7188C200.569 35.7188 201.342 35.541 201.998 35.1855C202.654 34.8301 203.16 34.3926 203.516 33.873C203.885 33.3535 204.076 32.8613 204.09 32.3965L205.648 34.8984C205.43 35.459 205.129 36.04 204.746 36.6416C204.377 37.2432 203.905 37.8105 203.331 38.3438C202.757 38.8633 202.066 39.2939 201.26 39.6357C200.453 39.9639 199.496 40.1279 198.389 40.1279C196.98 40.1279 195.702 39.8477 194.554 39.2871C193.419 38.7129 192.517 37.9268 191.847 36.9287C191.19 35.917 190.862 34.7686 190.862 33.4834C190.862 32.3213 191.081 31.2891 191.519 30.3867C191.956 29.4844 192.599 28.7256 193.446 28.1104C194.308 27.4814 195.381 27.0098 196.666 26.6953C197.951 26.3672 199.441 26.2031 201.137 26.2031H204.562ZM228.33 17.5283H233.683V38.9795C233.683 41.0029 233.231 42.7188 232.329 44.127C231.44 45.5488 230.196 46.6221 228.597 47.3467C226.997 48.085 225.138 48.4541 223.019 48.4541C222.089 48.4541 221.104 48.3311 220.065 48.085C219.04 47.8389 218.056 47.4561 217.112 46.9365C216.183 46.417 215.403 45.7607 214.774 44.9678L217.379 41.4814C218.062 42.2744 218.855 42.8896 219.758 43.3271C220.66 43.7783 221.658 44.0039 222.752 44.0039C223.818 44.0039 224.721 43.8057 225.459 43.4092C226.197 43.0264 226.765 42.459 227.161 41.707C227.558 40.9688 227.756 40.0732 227.756 39.0205V22.6553L228.33 17.5283ZM213.4 28.8896V28.459C213.4 26.7637 213.605 25.2256 214.016 23.8447C214.439 22.4502 215.034 21.2539 215.8 20.2559C216.579 19.2578 217.522 18.4854 218.63 17.9385C219.737 17.3916 220.988 17.1182 222.383 17.1182C223.859 17.1182 225.097 17.3916 226.095 17.9385C227.093 18.4854 227.913 19.2646 228.556 20.2764C229.198 21.2744 229.697 22.457 230.053 23.8242C230.422 25.1777 230.709 26.6611 230.914 28.2744V29.2178C230.709 30.7627 230.401 32.1982 229.991 33.5244C229.581 34.8506 229.041 36.0127 228.371 37.0107C227.701 37.9951 226.867 38.7607 225.869 39.3076C224.885 39.8545 223.709 40.1279 222.342 40.1279C220.975 40.1279 219.737 39.8477 218.63 39.2871C217.536 38.7266 216.6 37.9404 215.82 36.9287C215.041 35.917 214.439 34.7275 214.016 33.3604C213.605 31.9932 213.4 30.5029 213.4 28.8896ZM219.307 28.459V28.8896C219.307 29.8057 219.396 30.6602 219.573 31.4531C219.751 32.2461 220.024 32.9502 220.394 33.5654C220.776 34.167 221.248 34.6387 221.809 34.9805C222.383 35.3086 223.06 35.4727 223.839 35.4727C224.919 35.4727 225.801 35.2471 226.484 34.7959C227.168 34.3311 227.681 33.6953 228.022 32.8887C228.364 32.082 228.562 31.1523 228.617 30.0996V27.4131C228.59 26.5518 228.474 25.7793 228.269 25.0957C228.063 24.3984 227.776 23.8037 227.407 23.3115C227.038 22.8193 226.56 22.4365 225.972 22.1631C225.384 21.8896 224.687 21.7529 223.88 21.7529C223.101 21.7529 222.424 21.9307 221.85 22.2861C221.289 22.6279 220.817 23.0996 220.435 23.7012C220.065 24.3027 219.785 25.0137 219.594 25.834C219.402 26.6406 219.307 27.5156 219.307 28.459ZM248.489 40.1279C246.767 40.1279 245.222 39.8545 243.854 39.3076C242.487 38.7471 241.325 37.9746 240.368 36.9902C239.425 36.0059 238.7 34.8643 238.194 33.5654C237.688 32.2529 237.436 30.8584 237.436 29.3818V28.5615C237.436 26.8799 237.675 25.3418 238.153 23.9473C238.632 22.5527 239.315 21.3428 240.204 20.3174C241.106 19.292 242.2 18.5059 243.485 17.959C244.771 17.3984 246.22 17.1182 247.833 17.1182C249.405 17.1182 250.8 17.3779 252.017 17.8975C253.233 18.417 254.252 19.1553 255.072 20.1123C255.906 21.0693 256.535 22.2178 256.959 23.5576C257.383 24.8838 257.595 26.3604 257.595 27.9873V30.4482H239.958V26.5107H251.791V26.0596C251.791 25.2393 251.641 24.5078 251.34 23.8652C251.053 23.209 250.615 22.6895 250.027 22.3066C249.439 21.9238 248.688 21.7324 247.771 21.7324C246.992 21.7324 246.322 21.9033 245.762 22.2451C245.201 22.5869 244.743 23.0654 244.388 23.6807C244.046 24.2959 243.786 25.0205 243.608 25.8545C243.444 26.6748 243.362 27.5771 243.362 28.5615V29.3818C243.362 30.2705 243.485 31.0908 243.731 31.8428C243.991 32.5947 244.354 33.2441 244.818 33.791C245.297 34.3379 245.871 34.7617 246.541 35.0625C247.225 35.3633 247.997 35.5137 248.858 35.5137C249.925 35.5137 250.916 35.3086 251.832 34.8984C252.762 34.4746 253.562 33.8389 254.231 32.9912L257.103 36.1084C256.638 36.7783 256.002 37.4209 255.195 38.0361C254.402 38.6514 253.445 39.1572 252.324 39.5537C251.203 39.9365 249.925 40.1279 248.489 40.1279Z" fill="white"/>
<path d="M25.5706 1.21655L46.9737 13.0919V36.8426L25.5706 48.7179L4.16752 36.8426V13.0919L25.5706 1.21655Z" fill="#065E7C"/>
</svg>
